<?xml version="1.0" encoding="UTF-8"?>
<svg version="1.1" xmlns="http://www.w3.org/2000/svg" width="354" height="354">
<path d="M0 0 C116.82 0 233.64 0 354 0 C354 116.82 354 233.64 354 354 C237.18 354 120.36 354 0 354 C0 237.18 0 120.36 0 0 Z " fill="#FDFEFE" transform="translate(0,0)"/>
<path d="M0 0 C36.3 0 72.6 0 110 0 C110 109.23 110 218.46 110 331 C1.1 331 -107.8 331 -220 331 C-220 294.37 -220 257.74 -220 220 C-147.4 220 -74.8 220 0 220 C0 147.4 0 74.8 0 0 Z " fill="#3159E1" transform="translate(236,16)"/>
<path d="M0 0 C36.3 0 72.6 0 110 0 C110 72.6 110 145.2 110 220 C73.7 220 37.4 220 0 220 C0 147.4 0 74.8 0 0 Z " fill="#3159E1" transform="translate(236,16)"/>
<path d="M0 0 C36.3 0 72.6 0 110 0 C110 36.63 110 73.26 110 111 C73.7 111 37.4 111 0 111 C0 74.37 0 37.74 0 0 Z " fill="#637FE6" transform="translate(16,236)"/>
<path d="M0 0 C36.3 0 72.6 0 110 0 C110 36.63 110 73.26 110 111 C73.7 111 37.4 111 0 111 C0 74.37 0 37.74 0 0 Z " fill="#0031D9" transform="translate(236,236)"/>
<path d="M0 0 C36.3 0 72.6 0 110 0 C110 36.3 110 72.6 110 110 C73.7 110 37.4 110 0 110 C0 73.7 0 37.4 0 0 Z " fill="#3259E0" transform="translate(85,89)"/>
<path d="M0 0 C36.3 0 72.6 0 110 0 C110 36.3 110 72.6 110 110 C73.7 110 37.4 110 0 110 C0 73.7 0 37.4 0 0 Z " fill="#637FE5" transform="translate(236,16)"/>
<path d="M0 0 C16.17 0 32.34 0 49 0 C49 16.17 49 32.34 49 49 C32.83 49 16.66 49 0 49 C0 32.83 0 16.66 0 0 Z " fill="#3159E2" transform="translate(86,9)"/>
<path d="M0 0 C16.17 0 32.34 0 49 0 C49 16.17 49 32.34 49 49 C32.83 49 16.66 49 0 49 C0 32.83 0 16.66 0 0 Z M1 8 C1 20.87 1 33.74 1 47 C16.18 47 31.36 47 47 47 C47 34.13 47 21.26 47 8 C31.82 8 16.64 8 1 8 Z " fill="#3B59C7" transform="translate(86,9)"/>
<path d="M0 0 C7.26 0 14.52 0 22 0 C22 7.26 22 14.52 22 22 C14.74 22 7.48 22 0 22 C0 14.74 0 7.48 0 0 Z " fill="#355ACF" transform="translate(8,4)"/>
<path d="M0 0 C36.3 0 72.6 0 110 0 C110 0.33 110 0.66 110 1 C74.69 1.33 39.38 1.66 3 2 C2.21291545 5.14833821 1.87587975 7.21436083 1.87974548 10.35333252 C1.87837082 11.21707489 1.87699615 12.08081726 1.87557983 12.97073364 C1.88097275 14.37982498 1.88097275 14.37982498 1.88647461 15.81738281 C1.88632858 16.81283112 1.88618256 17.80827942 1.8860321 18.83389282 C1.88672868 22.12365906 1.8945092 25.41336865 1.90234375 28.703125 C1.90420883 30.98427296 1.90563231 33.26542132 1.90663147 35.54656982 C1.91044952 41.5503856 1.92027376 47.55417718 1.93133545 53.5579834 C1.94156485 59.6844856 1.94613237 65.81099172 1.95117188 71.9375 C1.96189664 83.95834396 1.97896455 95.97916997 2 108 C4.87418969 108.81748869 7.44471539 109.13298672 10.42926025 109.15821838 C11.75011627 109.17290161 11.75011627 109.17290161 13.09765625 109.18788147 C14.5347998 109.19651466 14.5347998 109.19651466 16.00097656 109.20532227 C17.01593201 109.21522186 18.03088745 109.22512146 19.07659912 109.23532104 C22.43125069 109.26690746 25.78591641 109.29168228 29.140625 109.31640625 C31.46661751 109.33697824 33.79260631 109.35797477 36.11859131 109.37937927 C42.24073271 109.43457463 48.36290772 109.48399516 54.48510742 109.53222656 C60.73228953 109.58246005 66.97942285 109.63813648 73.2265625 109.69335938 C85.48433332 109.80090996 97.7421465 109.90236188 110 110 C110 110.33 110 110.66 110 111 C73.7 111 37.4 111 0 111 C0 74.37 0 37.74 0 0 Z " fill="#6F7CCF" transform="translate(16,236)"/>
<path d="M0 0 C5.94 0 11.88 0 18 0 C18 5.94 18 11.88 18 18 C12.06 18 6.12 18 0 18 C0 12.06 0 6.12 0 0 Z " fill="#3659D7" transform="translate(21,99)"/>
<path d="M0 0 C36.3 0 72.6 0 110 0 C110 2.31 110 4.62 110 7 C109.34 7 108.68 7 108 7 C108 5.35 108 3.7 108 2 C94.63945293 2.08431056 81.27902645 2.17915776 67.91865158 2.28752708 C61.71515904 2.33751255 55.51168372 2.38384251 49.30810547 2.421875 C43.32340036 2.45869919 37.33883852 2.50505154 31.35425568 2.55806351 C29.06889606 2.57662267 26.78350572 2.59172497 24.49810028 2.60334396 C21.30164358 2.62018017 18.10551608 2.64920931 14.90917969 2.68115234 C13.96043472 2.68331253 13.01168976 2.68547272 12.03419495 2.68769836 C11.16203842 2.69886185 10.2898819 2.71002533 9.39129639 2.7215271 C8.25749102 2.72982324 8.25749102 2.72982324 7.10078049 2.73828697 C4.67715737 3.0402194 3.07093452 3.71716934 1 5 C0.67 5.66 0.34 6.32 0 7 C0 4.69 0 2.38 0 0 Z " fill="#3C59BD" transform="translate(126,236)"/>
<path d="M0 0 C2.97 0 5.94 0 9 0 C9 6.27 9 12.54 9 19 C4.05 19 -0.9 19 -6 19 C-6.33 14.71 -6.66 10.42 -7 6 C-6.01 6 -5.02 6 -4 6 C-4 8.31 -4 10.62 -4 13 C-3.34 13 -2.68 13 -2 13 C-2 13.66 -2 14.32 -2 15 C-1.34 15 -0.68 15 0 15 C0 10.05 0 5.1 0 0 Z " fill="#3258E6" transform="translate(20,6)"/>
<path d="M0 0 C0.33 0 0.66 0 1 0 C1 33.33 1 66.66 1 101 C-0.485 101.495 -0.485 101.495 -2 102 C-1.89267873 88.84845234 -1.78008263 75.6969616 -1.66066074 62.54551792 C-1.60538234 56.4394624 -1.55195462 50.33340213 -1.50268555 44.22729492 C-1.45511436 38.33990594 -1.40277446 32.45257728 -1.34705925 26.56525993 C-1.32660275 24.31369456 -1.30789526 22.06211262 -1.29092598 19.81051826 C-1.26695465 16.66862087 -1.23689053 13.52683867 -1.20532227 10.38500977 C-1.1995668 9.44418045 -1.19381134 8.50335114 -1.18788147 7.53401184 C-1.11405216 1.11405216 -1.11405216 1.11405216 0 0 Z " fill="#2C57EC" transform="translate(235,243)"/>
<path d="M0 0 C15.18 0 30.36 0 46 0 C46 1.32 46 2.64 46 4 C30.82 4 15.64 4 0 4 C0 2.68 0 1.36 0 0 Z " fill="#2F59E8" transform="translate(87,10)"/>
<path d="M0 0 C36.3 0 72.6 0 110 0 C110 0.33 110 0.66 110 1 C74.69 1.33 39.38 1.66 3 2 C2.34 3.98 1.68 5.96 1 8 C0.67 8 0.34 8 0 8 C0 5.36 0 2.72 0 0 Z " fill="#6D81BB" transform="translate(16,236)"/>
<path d="M0 0 C0.99 0.33 1.98 0.66 3 1 C2.83748025 1.57155067 2.6749605 2.14310135 2.50751591 2.73197174 C1.99905307 5.00423174 1.87683428 6.96425012 1.87974548 9.28845215 C1.87837082 10.13799973 1.87699615 10.9875473 1.87557983 11.86283875 C1.88097275 13.24847771 1.88097275 13.24847771 1.88647461 14.66210938 C1.88632858 15.64137894 1.88618256 16.6206485 1.8860321 17.6295929 C1.88672889 20.86766778 1.89451237 24.10568516 1.90234375 27.34375 C1.90420932 29.59289519 1.90563257 31.84204078 1.90663147 34.09118652 C1.91045032 40.01455811 1.92027231 45.93790519 1.93133545 51.86126709 C1.94154559 57.88797679 1.9461329 63.9146904 1.95117188 69.94140625 C1.96142161 81.27482309 1.97720464 92.60822385 1.99720669 103.9416275 C1.99994719 105.96108336 2 107.98054229 2 110 C1.34 110 0.68 110 0 110 C0 73.7 0 37.4 0 0 Z " fill="#EDFAFF" transform="translate(195,89)"/>
<path d="M0 0 C0.99 0 1.98 0 3 0 C3 0.66 3 1.32 3 2 C36.66 2 70.32 2 105 2 C105 2.33 105 2.66 105 3 C70.35 3 35.7 3 0 3 C0 2.01 0 1.02 0 0 Z " fill="#5D82F4" transform="translate(237,123)"/>
<path d="M0 0 C2.31 0 4.62 0 7 0 C7 6.27 7 12.54 7 19 C2.05 19 -2.9 19 -8 19 C-8 18.67 -8 18.34 -8 18 C-4.7 18 -1.4 18 2 18 C2 17.34 2 16.68 2 16 C3.32 16.33 4.64 16.66 6 17 C5.67 14.36 5.34 11.72 5 9 C4.01 9.33 3.02 9.66 2 10 C1.67 8.68 1.34 7.36 1 6 C2.65 5.67 4.3 5.34 6 5 C6 4.01 6 3.02 6 2 C4.35 2 2.7 2 1 2 C0.67 1.34 0.34 0.68 0 0 Z " fill="#335AD6" transform="translate(22,6)"/>
</svg>
